<svg xmlns="http://www.w3.org/2000/svg" viewBox="0 0 15 15"><path fill="#0052b4" d="M0 2.5h15v10H0zm0 0"/><path fill="#f0f0f0" d="M6.543 7.5l.023-.027zm-1 1.227l.32.671.727-.168-.328.672.586.461-.727.164v.743l-.578-.465-.578.465v-.743l-.727-.164.586-.46-.328-.673.727.168zm5.797.835l.152.32.348-.081-.156.32.277.219-.344.082v.355l-.277-.226-.277.226.003-.355-.351-.082.281-.219-.152-.32.344.082zM9.918 6.165l.152.324.344-.086-.152.32.277.223-.348.078v.356l-.273-.223-.281.223v-.356l-.344-.078.277-.222-.152-.32.344.085zm1.422-1.941l.152.32.348-.078-.156.32.277.219-.344.078v.356l-.277-.223-.277.223.003-.356-.347-.078.277-.219-.152-.32.344.078zm1.242 1.457l.156.32.344-.078-.152.316.277.223-.344.078v.356l-.277-.223-.277.223V6.54l-.348-.078.277-.223-.152-.316.344.078zm-.887 1.699l.121.371h.391l-.32.227.12.37-.312-.226-.316.227.121-.371-.316-.227h.39zM7.5 2.5v.895l-1.324.734H7.5v1.738H5.77l1.73.965V7.5h-.781L4.566 6.305V7.5H2.934V6.074L.37 7.5H0v-.895l1.324-.738H0V4.13h1.73L0 3.168V2.5h.781l2.153 1.2V2.5h1.632v1.422L7.13 2.5zm0 0"/><path fill="#d80027" d="M4.219 2.5H3.28v2.031H0v.938h3.281V7.5h.938V5.469H7.5V4.53H4.219zm0 0"/><path fill="#0052b4" d="M4.566 5.867L7.5 7.5v-.46L5.395 5.866zm0 0"/><path fill="#f0f0f0" d="M4.566 5.867L7.5 7.5v-.46L5.395 5.866zm0 0"/><path fill="#d80027" d="M4.566 5.867L7.5 7.5v-.46L5.395 5.866zm-2.46 0L0 7.04v.46l2.934-1.633zm0 0"/><path fill="#0052b4" d="M2.934 4.129L0 2.5v.46l2.105 1.17zm0 0"/><path fill="#f0f0f0" d="M2.934 4.129L0 2.5v.46l2.105 1.17zm0 0"/><path fill="#d80027" d="M2.934 4.129L0 2.5v.46l2.105 1.17zm2.46 0L7.5 2.96V2.5L4.566 4.129zm0 0"/></svg>